Coordinates
version=1
nRows=24
nColumns=24
inDegrees=yes

Units are S.I. units (second, meters, Newtons, ...)
Angles are in degrees.

endheader
time	pelvis_tilt	pelvis_list	pelvis_rotation	pelvis_tx	pelvis_ty	pelvis_tz	hip_flexion_r	hip_adduction_r	hip_rotation_r	knee_angle_r	ankle_angle_r	subtalar_angle_r	mtp_angle_r	hip_flexion_l	hip_adduction_l	hip_rotation_l	knee_angle_l	ankle_angle_l	subtalar_angle_l	mtp_angle_l	lumbar_extension	lumbar_bending	lumbar_rotation
      2.72000000	      4.31136493	     -6.11221710	      0.82520497	      0.33977041	      1.01699881	      0.06293292	      2.03189746	      8.25681872	     -2.64257227	     -9.46199082	      6.76881452	      1.14210084	     -2.66903759	     19.32358978	    -12.03083678	     -7.04927642	    -71.49315395	     -6.24992666	    -14.63805941	     28.41010365	    -15.02865347	      9.31021383	      2.46992985
      2.72500000	      4.37635314	     -6.04034396	      0.68457320	      0.34450101	      1.01748540	      0.06333677	      1.50776807	      8.20241548	     -2.58522268	     -9.20234137	      6.92031527	      1.30709437	     -2.67998670	     19.83754198	    -11.96044620	     -7.17176837	    -71.29679236	     -5.70465652	    -14.22761980	     28.55313674	    -15.14198551	      9.20435652	      2.61100844
      2.73000000	      4.50606228	     -5.98357797	      0.54961514	      0.34923299	      1.01804103	      0.06374299	      0.90233667	      8.16252136	     -2.50804433	     -8.92243164	      7.09310947	      1.51264941	     -2.70688297	     20.25985157	    -11.90696945	     -7.28551509	    -71.03323735	     -5.17640375	    -13.76861713	     28.66589150	    -15.32628233	      9.11003261	      2.77420658
      2.73500000	      4.63122756	     -5.91582024	      0.40575213	      0.35398618	      1.01858212	      0.06412345	      0.30113845	      8.10542075	     -2.44493212	     -8.64319049	      7.25945513	      1.71236747	     -2.74468092	     20.65337561	    -11.83958783	     -7.42049231	    -70.69495391	     -4.64126741	    -13.34258403	     28.73844077	    -15.50321063	      9.00481809	      2.92928024
      2.74000000	      4.79122119	     -5.84815793	      0.26032603	      0.35875183	      1.01915405	      0.06449692	     -0.34753178	      8.04499796	     -2.38180243	     -8.34655287	      7.42513755	      1.92647007	     -2.80071034	     20.97996190	    -11.77583530	     -7.56993789	    -70.28575726	     -4.10798638	    -12.90849859	     28.76466301	    -15.71509069	      8.89756983	      3.08738052
      2.74500000	      4.96974366	     -5.78568754	      0.11641287	      0.36353594	      1.01973681	      0.06485738	     -1.02258769	      7.98610815	     -2.32931251	     -8.03750142	      7.57540313	      2.14545273	     -2.91828999	     21.25773254	    -11.71395148	     -7.72167018	    -69.80881242	     -3.57162042	    -12.51205822	     28.67559250	    -15.94603431	      8.79356314	      3.23283838
      2.75000000	      5.08619780	     -5.69579222	     -0.05249397	      0.36823733	      1.02021651	      0.06519372	     -1.60185766	      7.88932768	     -2.24625320	     -7.77678639	      7.74979984	      2.35125232	     -2.97106092	     21.58068882	    -11.61102594	     -7.87334250	    -69.26831042	     -3.05504125	    -12.07558532	     28.66494768	    -16.11424292	      8.65881273	      3.41891783
      2.75500000	      5.29722386	     -5.62984176	     -0.21046110	      0.37301092	      1.02080666	      0.06553009	     -2.31664709	      7.81575427	     -2.17448985	     -7.45774353	      7.90428600	      2.58459178	     -3.07081343	     21.76526208	    -11.54546306	     -8.04406542	    -68.65796389	     -2.54486284	    -11.66612412	     28.54599849	    -16.38003005	      8.54608724	      3.58243000
      2.76000000	      5.51821133	     -5.51102777	     -0.34410152	      0.37779615	      1.02141992	      0.06577738	     -3.04082118	      7.67841658	     -2.15647427	     -7.14000213	      8.08206679	      2.82412781	     -3.44362610	     21.90426080	    -11.39312995	     -8.19765866	    -67.96167091	     -2.01426300	    -11.27970474	     27.89501555	    -16.64857607	      8.38181336	      3.69479681
      2.76500000	      5.60433693	     -5.47800868	     -0.55658985	      0.38244141	      1.02175197	      0.06611858	     -3.57154173	      7.62570886	     -2.03325003	     -6.90194799	      8.24355513	      3.05005095	     -3.48470247	     22.19247429	    -11.36166610	     -8.36340363	    -67.26606490	     -1.51823192	    -10.83043795	     27.89257213	    -16.79100897	      8.29980268	      3.94205491
      2.77000000	      5.78418864	     -5.40353078	     -0.73888499	      0.38715185	      1.02222815	      0.06640687	     -4.23340922	      7.52483032	     -1.94006861	     -6.61008057	      8.39365352	      3.26340046	     -3.54312378	     22.33165873	    -11.27156964	     -8.53087525	    -66.47144376	     -1.07157406	    -10.43738132	     27.81991674	    -17.02508801	      8.17156371	      4.12581555
      2.77500000	      6.01941017	     -5.30292675	     -0.87576793	      0.39193609	      1.02277640	      0.06659600	     -4.97631087	      7.39062273	     -1.92208089	     -6.28079244	      8.53911529	      3.51230871	     -3.80924808	     22.37856252	    -11.12872698	     -8.68000605	    -65.59844875	     -0.63366086	    -10.11454943	     27.27186898	    -17.30497981	      8.02643256	      4.24023729
      2.78000000	      6.10675074	     -5.27694662	     -1.09735404	      0.39656006	      1.02302769	      0.06690784	     -5.50202249	      7.32980698	     -1.77752369	     -6.05149042	      8.71207135	      3.73717651	     -3.85380333	     22.58673672	    -11.09655078	     -8.83650657	    -64.72908077	     -0.20841757	     -9.68615484	     27.22023296	    -17.44792838	      7.94431734	      4.48411790
      2.78500000	      6.33035054	     -5.18104524	     -1.23931922	      0.40132815	      1.02348261	      0.06706418	     -6.22569646	      7.19091719	     -1.75594814	     -5.73081032	      8.87021157	      3.97260254	     -4.11418885	     22.59811269	    -10.94920677	     -8.97244972	    -63.75162887	      0.17950516	     -9.35903919	     26.65201246	    -17.71391727	      7.80226672	      4.59660482
      2.79000000	      6.47528617	     -5.13264052	     -1.43934662	      0.40601846	      1.02376871	      0.06729384	     -6.81928648	      7.09414342	     -1.67788903	     -5.49676825	      9.10668011	      4.25121215	     -4.50671226	     22.67841035	    -10.87412700	     -9.12378992	    -62.75996472	      0.64565969	     -8.92396553	     25.87673237	    -17.90771649	      7.69934451	      4.80466465
      2.79500000	      6.59135573	     -5.09884294	     -1.63215609	      0.41069086	      1.02398065	      0.06752697	     -7.39393164	      7.01408400	     -1.54601606	     -5.23069893	      9.22853868	      4.42116988	     -4.53002882	     22.77621691	    -10.81157030	     -9.24643985	    -61.71715622	      0.94394026	     -8.51614110	     25.87976731	    -18.06967991	      7.61207827	      5.00134448
      2.80000000	      6.71408932	     -5.04068529	     -1.81038679	      0.41539407	      1.02417914	      0.06770645	     -7.97071614	      6.90357167	     -1.46232145	     -4.97537349	      9.38183194	      4.61493909	     -4.54947304	     22.83423379	    -10.70625649	     -9.35819925	    -60.60974930	      1.21558480	     -8.17499282	     25.83455700	    -18.23158684	      7.50310405	      5.16901153
      2.80500000	      6.88091379	     -4.99586921	     -1.97634910	      0.42015018	      1.02439917	      0.06789622	     -8.61139838	      6.80609515	     -1.40094280	     -4.69399300	      9.52192931	      4.82489859	     -4.59072183	     22.81509284	    -10.61991812	     -9.48082970	    -59.45382515	      1.48369350	     -7.85631469	     25.70605473	    -18.43640829	      7.40396497	      5.31239296
      2.81000000	      6.98477608	     -4.95188762	     -2.14902085	      0.42484534	      1.02449526	      0.06806069	     -9.15547244	      6.70604034	     -1.30618687	     -4.46146953	      9.69008357	      5.00717276	     -4.62023685	     22.85129568	    -10.52117224	     -9.56298404	    -58.25964781	      1.71818081	     -7.47891964	     25.58835782	    -18.57508667	      7.30929033	      5.47125390
      2.81500000	      7.11862985	     -4.90862321	     -2.31871430	      0.42958617	      1.02460606	      0.06823650	     -9.74492539	      6.60475068	     -1.22268831	     -4.20686157	      9.84070222	      5.18048531	     -4.65741909	     22.81978473	    -10.42991834	     -9.66772300	    -57.01286260	      1.94439676	     -7.11488251	     25.42182731	    -18.74266220	      7.21067462	      5.61715004
      2.82000000	      7.22241646	     -4.87339077	     -2.49497460	      0.43429681	      1.02463189	      0.06841932	    -10.28808692	      6.51035728	     -1.11781904	     -3.97552856	      9.99675787	      5.32903654	     -4.69025656	     22.80177323	    -10.34655238	     -9.76144918	    -55.72967579	      2.15261993	     -6.72908234	     25.23543572	    -18.88052898	      7.11865172	      5.77171721
      2.82500000	      7.31681799	     -4.83983036	     -2.68067734	      0.43897922	      1.02461937	      0.06861145	    -10.81000537	      6.41351040	     -0.98340932	     -3.76174709	     10.16081603	      5.45134548	     -4.71016547	     22.76851368	    -10.26709016	     -9.85643096	    -54.40324216	      2.33433113	     -6.32135499	     25.05556170	    -19.01212392	      7.02474186	      5.92545092
      2.83000000	      7.41490649	     -4.80661076	     -2.88270773	      0.44365738	      1.02459900	      0.06882385	    -11.33214803	      6.31212674	     -0.82627495	     -3.55373188	     10.30760575	      5.55135039	     -4.72401812	     22.69541102	    -10.19295277	     -9.97057837	    -53.02415160	      2.50366984	     -5.90674706	     24.84575998	    -19.14814747	      6.92411844	      6.09836260
      2.83500000	      7.49941854	     -4.78725916	     -3.09860573	      0.44828172	      1.02452461	      0.06905728	    -11.82277049	      6.22084051	     -0.62845592	     -3.37270186	     10.45241626	      5.62420915	     -4.72641328	     22.61552045	    -10.13863341	    -10.08839298	    -51.61031376	      2.65606560	     -5.47071048	     24.60653950	    -19.27722365	      6.83255109	      6.27999004
